<svg width="23" height="29" viewBox="0 0 23 29" fill="none" xmlns="http://www.w3.org/2000/svg">
<path d="M11.5 16.4375C10.542 16.4375 9.60551 16.1534 8.80896 15.6212C8.01241 15.0889 7.39157 14.3325 7.02496 13.4474C6.65835 12.5623 6.56243 11.5884 6.74932 10.6488C6.93622 9.70919 7.39754 8.84611 8.07495 8.1687C8.75236 7.49129 9.61544 7.02997 10.555 6.84307C11.4946 6.65618 12.4685 6.7521 13.3536 7.11871C14.2387 7.48532 14.9952 8.10616 15.5274 8.90271C16.0597 9.69926 16.3438 10.6357 16.3438 11.5938C16.3422 12.8779 15.8314 14.1091 14.9234 15.0171C14.0153 15.9251 12.7842 16.436 11.5 16.4375ZM11.5 8.6875C10.9252 8.6875 10.3633 8.85795 9.88538 9.17729C9.40745 9.49664 9.03494 9.95053 8.81498 10.4816C8.59501 11.0126 8.53746 11.597 8.6496 12.1607C8.76173 12.7245 9.03853 13.2423 9.44497 13.6488C9.85142 14.0552 10.3693 14.332 10.933 14.4442C11.4968 14.5563 12.0811 14.4987 12.6122 14.2788C13.1432 14.0588 13.5971 13.6863 13.9165 13.2084C14.2358 12.7304 14.4063 12.1686 14.4063 11.5938C14.4055 10.8232 14.099 10.0844 13.5542 9.53957C13.0093 8.99471 12.2706 8.68827 11.5 8.6875Z" fill="#88A462"/>
<path d="M11.5 28.0625L3.32764 18.4244C3.21408 18.2797 3.1017 18.134 2.99051 17.9875C1.59452 16.1486 0.840378 13.9025 0.843761 11.5938C0.843761 8.76754 1.96647 6.05708 3.9649 4.05864C5.96334 2.06021 8.6738 0.9375 11.5 0.9375C14.3262 0.9375 17.0367 2.06021 19.0351 4.05864C21.0336 6.05708 22.1563 8.76754 22.1563 11.5938C22.1596 13.9015 21.4058 16.1465 20.0105 17.9846L20.0095 17.9875C20.0095 17.9875 19.7189 18.3692 19.6753 18.4205L11.5 28.0625ZM4.53664 16.8202C4.53664 16.8202 4.76332 17.1185 4.81467 17.1825L11.5 25.0671L18.1941 17.1718C18.2367 17.1185 18.4644 16.8173 18.4644 16.8173C19.6047 15.3148 20.221 13.4799 20.2188 11.5938C20.2188 9.28139 19.3002 7.06375 17.6651 5.42866C16.03 3.79358 13.8124 2.875 11.5 2.875C9.18765 2.875 6.97001 3.79358 5.33492 5.42866C3.69984 7.06375 2.78126 9.28139 2.78126 11.5938C2.77923 13.4811 3.39523 15.3171 4.53664 16.8202Z" fill="#88A462"/>
</svg>
