<svg width="35" height="27" viewBox="0 0 35 27" fill="none" xmlns="http://www.w3.org/2000/svg">
<path d="M34.7764 3.93334C34.7019 3.46018 34.4853 3.02084 34.1554 2.67358C33.8255 2.32632 33.3979 2.08753 32.9291 1.98889L27.2222 0.734726C26.6102 0.601251 25.9767 0.60075 25.3645 0.733256C24.7523 0.865763 24.1756 1.12819 23.6736 1.50278L6.80554 13.7917L2.08054 13.5972C1.70071 13.5836 1.32625 13.6901 1.01035 13.9014C0.694444 14.1127 0.453163 14.4182 0.320771 14.7745C0.18838 15.1308 0.17161 15.5197 0.272845 15.8861C0.374079 16.2524 0.588169 16.5775 0.884708 16.8153L5.74582 20.6361C6.32915 21.3458 6.71804 21.2097 16.3722 15.95L17.2764 25.1083C17.2914 25.3582 17.3771 25.5986 17.5233 25.8017C17.6696 26.0048 17.8706 26.1622 18.1028 26.2556C18.2698 26.3216 18.4481 26.3546 18.6278 26.3528C18.9893 26.3417 19.3347 26.2001 19.6 25.9542L21.9236 23.8347C22.155 23.6204 22.3117 23.3376 22.3708 23.0278L24.5 11.4583C27.9708 9.51389 31.2569 7.68611 33.6 6.35417C34.0192 6.11837 34.3564 5.76025 34.5666 5.32766C34.7768 4.89507 34.85 4.40863 34.7764 3.93334ZM32.6375 4.6625C30.2069 6.04306 26.8042 7.97778 23.1486 9.98056L22.75 10.2042L20.4847 22.5222L19.0555 23.825L17.9861 12.8389L16.693 13.5C9.72221 17.3889 7.3986 18.5167 6.60137 18.8667L2.42082 15.5514L7.35971 15.7653L24.8597 3.06806C25.1348 2.86241 25.4502 2.71714 25.7852 2.64175C26.1203 2.56636 26.4675 2.56255 26.8042 2.63056L32.4916 3.85556C32.5793 3.87145 32.6596 3.91491 32.7208 3.97962C32.782 4.04433 32.8209 4.12689 32.8319 4.21528C32.8519 4.30082 32.8438 4.39054 32.8088 4.47111C32.7738 4.55167 32.7137 4.6188 32.6375 4.6625Z" fill="#88A462"/>
<path d="M6.80552 8.19169L10.2666 9.16391L11.8611 8.00697L7.97219 6.87919L9.72219 5.80975L15.0402 5.65419L17.2764 4.03058L9.72219 4.26391C9.48403 4.25103 9.24735 4.30851 9.04163 4.42919L6.48469 5.91669C6.2733 6.04192 6.1037 6.22692 5.99729 6.44838C5.89087 6.66984 5.8524 6.91785 5.88671 7.16114C5.92102 7.40444 6.02658 7.63213 6.19009 7.81552C6.3536 7.99892 6.56774 8.12981 6.80552 8.19169Z" fill="#88A462"/>
</svg>
